<svg width="689" height="407" viewBox="0 0 689 407" fill="none" xmlns="http://www.w3.org/2000/svg">
<path d="M49.327 65.6814L263.827 41.1814H312.327C329.527 41.1814 353.494 165.515 363.327 227.681C333.327 291.281 425.827 237.181 475.827 202.181C427.827 213.781 396.494 119.015 386.827 70.1814C409.827 56.848 455.827 37.2814 455.827 65.6814C455.827 94.0814 498.494 119.848 519.827 129.181C526.16 113.515 540.427 75.9814 546.827 51.1814C553.227 26.3814 616.827 50.5147 647.827 65.6814C601.827 202.681 484.827 346.681 455.827 363.681C432.627 377.281 423.827 326.015 422.327 298.681C411.827 311.348 386.327 340.381 368.327 355.181C345.827 373.681 285.827 284.181 278.327 227.681C272.327 182.481 251.494 208.848 241.827 227.681L140.827 278.681L58.327 227.681L71.827 206.681C85.1603 215.015 117.627 230.881 140.827 227.681C169.827 223.681 123.827 139.181 136.327 118.181C148.827 97.1814 92.327 111.181 58.327 118.181C31.127 123.781 40.9936 85.5147 49.327 65.6814Z" fill="#110101" stroke="black"/>
<g filter="url(#filter0_d_0_1)">
<path d="M110.827 65.6814H243.827L222.827 96.6814L170.327 82.1814C188.327 156.181 200.427 304.281 110.827 246.681C98.7175 238.897 89.7176 233.286 83.3014 229.392C68.5553 221.911 63.019 217.08 83.3014 229.392C107.035 241.432 154.627 260.337 156.827 225.681C160.027 175.281 156.827 82.1814 130.327 89.1814L63.827 106.681L110.827 65.6814Z" fill="#4BCA24"/>
<path d="M288.827 65.6814C260.827 36.8814 206.494 174.348 182.827 246.681L222.827 210.681L234.577 182.181H287.553C303.027 251.968 318.827 281.681 328.827 303.681C380.827 370.081 409.16 298.848 412.827 252.181C319.827 402.181 323.827 101.681 288.827 65.6814Z" fill="#4BCA24"/>
<path d="M565.827 57.6814C558.494 80.6814 546.627 125.581 525.827 147.181C505.901 167.873 462.853 128.343 449.327 89.1814C448.764 84.848 446.627 59.2814 417.827 65.6814C389.027 72.0814 446.827 184.681 525.827 194.681L469.327 293.681L460.327 240.181C439.994 223.515 414.727 232.981 444.327 312.181C473.927 391.381 563.494 172.681 599.827 57.6814H565.827Z" fill="#4BCA24"/>
<path d="M110.827 65.6814H243.827L222.827 96.6814L170.327 82.1814C188.327 156.181 200.427 304.281 110.827 246.681C-1.17303 174.681 152.827 288.681 156.827 225.681C160.027 175.281 156.827 82.1814 130.327 89.1814L63.827 106.681L110.827 65.6814ZM182.827 246.681C206.494 174.348 260.827 36.8814 288.827 65.6814C323.827 101.681 319.827 402.181 412.827 252.181C409.16 298.848 380.827 370.081 328.827 303.681C318.827 281.681 303.027 251.968 287.553 182.181H234.577L222.827 210.681L182.827 246.681ZM269.827 96.6814L246.327 153.681H281.381C277.003 133.003 273.026 113.239 269.827 96.6814ZM525.827 147.181C546.627 125.581 558.494 80.6814 565.827 57.6814H599.827C563.494 172.681 473.927 391.381 444.327 312.181C414.727 232.981 439.994 223.515 460.327 240.181L469.327 293.681L525.827 194.681C446.827 184.681 389.027 72.0814 417.827 65.6814C446.627 59.2814 448.764 84.848 449.327 89.1814C462.853 128.343 505.901 167.873 525.827 147.181Z" stroke="#FF0000"/>
</g>
<path d="M520.827 162.681C521.327 158.181 523.127 150.081 526.327 153.681C527.66 150.015 530.927 144.881 533.327 153.681C536.127 148.881 537.827 157.681 538.327 162.681V170.931V179.181H529.577H520.827V170.931V162.681Z" fill="white"/>
<path d="M288.327 159.681L296.827 149.681L308.827 159.681H302.827L311.327 168.181H303.827L311.327 175.681H299.827L299.327 183.681H295.827V175.681H291.827H281.327L289.827 168.181H283.827L292.827 159.681H288.327Z" fill="white"/>
<path d="M143.327 73.6814L149.827 68.6814L158.327 73.6814H152.827L161.327 78.6814H154.327L163.327 83.6814H151.327L151.827 89.6814H147.827V83.6814H138.827H133.827L143.327 78.6814H138.827L147.327 73.6814H143.327Z" fill="white"/>
<path d="M520.827 162.681C521.327 158.181 523.127 150.081 526.327 153.681C527.66 150.015 530.927 144.881 533.327 153.681C536.127 148.881 537.827 157.681 538.327 162.681M520.827 162.681H529.577M520.827 162.681V170.931M538.327 162.681H529.577M538.327 162.681V170.931M529.577 162.681V179.181M529.577 179.181H538.327V170.931M529.577 179.181H520.827V170.931M520.827 170.931H538.327M295.827 175.681H291.827H281.327L289.827 168.181H283.827L292.827 159.681H288.327L296.827 149.681L308.827 159.681H302.827L311.327 168.181H303.827L311.327 175.681H299.827M295.827 175.681V183.681H299.327L299.827 175.681M295.827 175.681H299.827M149.827 68.6814L143.327 73.6814H147.327L138.827 78.6814H143.327L133.827 83.6814H138.827H147.827V89.6814H151.827L151.327 83.6814H163.327L154.327 78.6814H161.327L152.827 73.6814H158.327L149.827 68.6814Z" stroke="#FF0000"/>
<rect x="40.5" y="4.49994" width="59.375" height="30" rx="3" fill="#444444"/>
<rect x="41" y="4.99994" width="58.375" height="29" rx="2.5" stroke="white" stroke-opacity="0.0980392"/>
<path d="M51.8438 16.4999C51.7969 16.1041 51.6068 15.7968 51.2734 15.5781C50.9401 15.3593 50.5313 15.2499 50.0469 15.2499C49.6927 15.2499 49.3828 15.3072 49.1172 15.4218C48.8542 15.5364 48.6484 15.6939 48.5 15.8945C48.3542 16.095 48.2813 16.3229 48.2813 16.5781C48.2813 16.7916 48.332 16.9752 48.4336 17.1288C48.5378 17.2799 48.6706 17.4062 48.832 17.5078C48.9935 17.6067 49.1628 17.6887 49.3398 17.7538C49.5169 17.8163 49.6797 17.8671 49.8281 17.9062L50.6406 18.1249C50.849 18.1796 51.0807 18.2551 51.3359 18.3515C51.5938 18.4479 51.8398 18.5794 52.0742 18.746C52.3112 18.9101 52.5065 19.121 52.6602 19.3788C52.8138 19.6367 52.8906 19.9531 52.8906 20.3281C52.8906 20.7604 52.7773 21.151 52.5508 21.4999C52.3268 21.8489 51.9987 22.1262 51.5664 22.332C51.1367 22.5377 50.6146 22.6406 50 22.6406C49.4271 22.6406 48.931 22.5481 48.5117 22.3632C48.0951 22.1783 47.7669 21.9205 47.5273 21.5898C47.2904 21.2591 47.1563 20.8749 47.125 20.4374H48.125C48.151 20.7395 48.2526 20.9895 48.4297 21.1874C48.6094 21.3828 48.8359 21.5286 49.1094 21.6249C49.3854 21.7187 49.6823 21.7656 50 21.7656C50.3698 21.7656 50.7018 21.7057 50.9961 21.5859C51.2904 21.4635 51.5234 21.2942 51.6953 21.0781C51.8672 20.8593 51.9531 20.6041 51.9531 20.3124C51.9531 20.0468 51.8789 19.8307 51.7305 19.664C51.582 19.4973 51.3867 19.3619 51.1445 19.2578C50.9023 19.1536 50.6406 19.0624 50.3594 18.9843L49.375 18.7031C48.75 18.5234 48.2552 18.2669 47.8906 17.9335C47.526 17.6002 47.3438 17.164 47.3438 16.6249C47.3438 16.177 47.4648 15.7864 47.707 15.4531C47.9518 15.1171 48.2799 14.8567 48.6914 14.6718C49.1055 14.4843 49.5677 14.3906 50.0781 14.3906C50.5938 14.3906 51.0521 14.483 51.4531 14.6679C51.8542 14.8502 52.1719 15.1002 52.4062 15.4179C52.6432 15.7356 52.7682 16.0963 52.7813 16.4999H51.8438ZM56.874 22.6249C56.2959 22.6249 55.7972 22.4973 55.3779 22.2421C54.9613 21.9843 54.6396 21.6249 54.4131 21.164C54.1891 20.7005 54.0771 20.1614 54.0771 19.5468C54.0771 18.9322 54.1891 18.3906 54.4131 17.9218C54.6396 17.4505 54.9548 17.0833 55.3584 16.8203C55.7646 16.5546 56.2386 16.4218 56.7803 16.4218C57.0928 16.4218 57.4014 16.4739 57.7061 16.5781C58.0107 16.6822 58.2881 16.8515 58.5381 17.0859C58.7881 17.3176 58.9873 17.6249 59.1357 18.0078C59.2842 18.3906 59.3584 18.8619 59.3584 19.4218V19.8124H54.7334V19.0156H58.4209C58.4209 18.677 58.3532 18.3749 58.2178 18.1093C58.085 17.8437 57.8949 17.6341 57.6475 17.4804C57.4027 17.3268 57.1136 17.2499 56.7803 17.2499C56.4131 17.2499 56.0954 17.3411 55.8271 17.5234C55.5615 17.7031 55.3571 17.9374 55.2139 18.2265C55.0706 18.5156 54.999 18.8255 54.999 19.1562V19.6874C54.999 20.1406 55.0771 20.5247 55.2334 20.8398C55.3923 21.1523 55.6123 21.3906 55.8936 21.5546C56.1748 21.7161 56.5016 21.7968 56.874 21.7968C57.1162 21.7968 57.335 21.763 57.5303 21.6953C57.7282 21.6249 57.8988 21.5208 58.042 21.3828C58.1852 21.2421 58.2959 21.0676 58.374 20.8593L59.2646 21.1093C59.1709 21.4114 59.0133 21.677 58.792 21.9062C58.5706 22.1328 58.2972 22.3098 57.9717 22.4374C57.6462 22.5624 57.2803 22.6249 56.874 22.6249ZM63.1982 22.6249C62.6357 22.6249 62.1514 22.4921 61.7451 22.2265C61.3389 21.9609 61.0264 21.595 60.8076 21.1288C60.5889 20.6627 60.4795 20.1301 60.4795 19.5312C60.4795 18.9218 60.5915 18.3841 60.8154 17.9179C61.042 17.4492 61.3571 17.0833 61.7607 16.8203C62.167 16.5546 62.641 16.4218 63.1826 16.4218C63.6045 16.4218 63.9847 16.4999 64.3232 16.6562C64.6618 16.8124 64.9391 17.0312 65.1553 17.3124C65.3714 17.5937 65.5055 17.9218 65.5576 18.2968H64.6357C64.5654 18.0234 64.4092 17.7812 64.167 17.5703C63.9274 17.3567 63.6045 17.2499 63.1982 17.2499C62.8389 17.2499 62.5238 17.3437 62.2529 17.5312C61.9847 17.7161 61.7751 17.9778 61.624 18.3163C61.4756 18.6523 61.4014 19.0468 61.4014 19.4999C61.4014 19.9635 61.4743 20.3671 61.6201 20.7109C61.7686 21.0546 61.9769 21.3216 62.2451 21.5117C62.516 21.7018 62.8337 21.7968 63.1982 21.7968C63.4378 21.7968 63.6553 21.7551 63.8506 21.6718C64.0459 21.5885 64.2113 21.4687 64.3467 21.3124C64.4821 21.1562 64.5785 20.9687 64.6357 20.7499H65.5576C65.5055 21.1041 65.3766 21.4231 65.1709 21.707C64.9678 21.9882 64.6982 22.2122 64.3623 22.3788C64.029 22.5429 63.641 22.6249 63.1982 22.6249ZM69.5146 16.4999V17.2812H66.4053V16.4999H69.5146ZM67.3115 15.0624H68.2334V20.7812C68.2334 21.0416 68.2712 21.2369 68.3467 21.3671C68.4248 21.4947 68.5238 21.5807 68.6436 21.6249C68.766 21.6666 68.8949 21.6874 69.0303 21.6874C69.1318 21.6874 69.2152 21.6822 69.2803 21.6718C69.3454 21.6588 69.3975 21.6484 69.4365 21.6406L69.624 22.4687C69.5615 22.4921 69.4743 22.5156 69.3623 22.539C69.2503 22.565 69.1084 22.5781 68.9365 22.5781C68.6761 22.5781 68.4209 22.5221 68.1709 22.4101C67.9235 22.2981 67.7178 22.1275 67.5537 21.8984C67.3923 21.6692 67.3115 21.3801 67.3115 21.0312V15.0624ZM70.9014 22.4999V16.4999H71.8232V22.4999H70.9014ZM71.3701 15.4999C71.1904 15.4999 71.0355 15.4387 70.9053 15.3163C70.7777 15.1939 70.7139 15.0468 70.7139 14.8749C70.7139 14.7031 70.7777 14.5559 70.9053 14.4335C71.0355 14.3111 71.1904 14.2499 71.3701 14.2499C71.5498 14.2499 71.7035 14.3111 71.8311 14.4335C71.9613 14.5559 72.0264 14.7031 72.0264 14.8749C72.0264 15.0468 71.9613 15.1939 71.8311 15.3163C71.7035 15.4387 71.5498 15.4999 71.3701 15.4999ZM75.9492 22.6249C75.4076 22.6249 74.9323 22.496 74.5234 22.2382C74.1172 21.9804 73.7995 21.6197 73.5703 21.1562C73.3438 20.6926 73.2305 20.151 73.2305 19.5312C73.2305 18.9062 73.3438 18.3606 73.5703 17.8945C73.7995 17.4283 74.1172 17.0663 74.5234 16.8085C74.9323 16.5507 75.4076 16.4218 75.9492 16.4218C76.4909 16.4218 76.9648 16.5507 77.3711 16.8085C77.7799 17.0663 78.0977 17.4283 78.3242 17.8945C78.5534 18.3606 78.668 18.9062 78.668 19.5312C78.668 20.151 78.5534 20.6926 78.3242 21.1562C78.0977 21.6197 77.7799 21.9804 77.3711 22.2382C76.9648 22.496 76.4909 22.6249 75.9492 22.6249ZM75.9492 21.7968C76.3607 21.7968 76.6992 21.6913 76.9648 21.4804C77.2305 21.2695 77.4271 20.9921 77.5547 20.6484C77.6823 20.3046 77.7461 19.9322 77.7461 19.5312C77.7461 19.1301 77.6823 18.7564 77.5547 18.4101C77.4271 18.0637 77.2305 17.7838 76.9648 17.5703C76.6992 17.3567 76.3607 17.2499 75.9492 17.2499C75.5378 17.2499 75.1992 17.3567 74.9336 17.5703C74.668 17.7838 74.4714 18.0637 74.3438 18.4101C74.2161 18.7564 74.1523 19.1301 74.1523 19.5312C74.1523 19.9322 74.2161 20.3046 74.3438 20.6484C74.4714 20.9921 74.668 21.2695 74.9336 21.4804C75.1992 21.6913 75.5378 21.7968 75.9492 21.7968ZM80.9971 18.8906V22.4999H80.0752V16.4999H80.9658V17.4374H81.0439C81.1846 17.1328 81.3981 16.888 81.6846 16.7031C81.971 16.5156 82.3408 16.4218 82.7939 16.4218C83.2002 16.4218 83.5557 16.5051 83.8604 16.6718C84.165 16.8359 84.402 17.0859 84.5713 17.4218C84.7406 17.7551 84.8252 18.177 84.8252 18.6874V22.4999H83.9033V18.7499C83.9033 18.2786 83.7809 17.9114 83.5361 17.6484C83.2913 17.3828 82.9554 17.2499 82.5283 17.2499C82.234 17.2499 81.971 17.3137 81.7393 17.4413C81.5101 17.5689 81.3291 17.7551 81.1963 17.9999C81.0635 18.2447 80.9971 18.5416 80.9971 18.8906ZM92.4004 14.4999V22.4999H91.4316V15.5156H91.3848L89.4316 16.8124V15.8281L91.4316 14.4999H92.4004Z" fill="white"/>
<defs>
<filter id="filter0_d_0_1" x="59.4983" y="57.1814" width="545.011" height="282" filterUnits="userSpaceOnUse" color-interpolation-filters="sRGB">
<feFlood flood-opacity="0" result="BackgroundImageFix"/>
<feColorMatrix in="SourceAlpha" type="matrix" values="0 0 0 0 0 0 0 0 0 0 0 0 0 0 0 0 0 0 127 0" result="hardAlpha"/>
<feOffset dy="4"/>
<feGaussianBlur stdDeviation="2"/>
<feComposite in2="hardAlpha" operator="out"/>
<feColorMatrix type="matrix" values="0 0 0 0 0 0 0 0 0 0 0 0 0 0 0 0 0 0 0.25 0"/>
<feBlend mode="normal" in2="BackgroundImageFix" result="effect1_dropShadow_0_1"/>
<feBlend mode="normal" in="SourceGraphic" in2="effect1_dropShadow_0_1" result="shape"/>
</filter>
</defs>
</svg>
